<?xml version="1.0" standalone="no"?>
<!DOCTYPE svg PUBLIC "-//W3C//DTD SVG 20010904//EN"
 "http://www.w3.org/TR/2001/REC-SVG-20010904/DTD/svg10.dtd">
<svg version="1.0" xmlns="http://www.w3.org/2000/svg"
 width="300.000000pt" height="69.000000pt" viewBox="0 0 300.000000 69.000000"
 preserveAspectRatio="xMidYMid meet">
<metadata>
sus among us!!! why are you reading this
</metadata>
<g transform="translate(0.000000,69.000000) scale(0.100000,-0.100000)"
fill="#FFFFFF" stroke="none">
<path d="M2710 459 c-7 -33 -18 -62 -24 -64 -6 -2 -24 -6 -40 -10 -36 -8 -93
-63 -101 -98 -10 -38 2 -75 25 -82 13 -4 37 1 60 13 33 16 40 17 40 5 0 -8 7
-13 18 -11 13 3 18 17 24 68 3 36 16 102 27 147 25 98 25 93 2 93 -14 0 -21
-13 -31 -61z m-30 -128 c0 -51 -67 -113 -97 -89 -19 16 -16 33 14 68 23 28 53
47 76 49 4 1 7 -12 7 -28z"/>
<path d="M385 498 c-19 -54 -85 -280 -85 -293 0 -31 26 -14 40 27 15 42 16 43
93 64 l79 22 -6 -22 c-15 -65 -17 -94 -6 -101 18 -11 29 6 40 62 5 29 13 60
18 70 10 19 31 98 40 146 4 24 1 28 -14 25 -12 -2 -24 -24 -38 -72 l-21 -69
-75 -18 c-41 -9 -76 -16 -78 -14 -2 2 8 40 22 86 14 45 23 86 20 91 -8 12 -24
10 -29 -4z"/>
<path d="M1145 488 c-27 -76 -73 -284 -65 -292 17 -17 30 7 45 75 7 35 22 91
34 124 25 71 27 105 6 105 -9 0 -18 -6 -20 -12z"/>
<path d="M1224 449 c-14 -28 -23 -57 -20 -65 11 -29 32 -12 54 45 26 69 26 71
7 71 -8 0 -26 -23 -41 -51z"/>
<path d="M1890 474 c0 -9 8 -18 18 -21 17 -4 17 -10 -8 -105 -21 -80 -31 -103
-47 -109 -62 -23 -21 -44 55 -28 131 27 202 85 202 167 0 65 -67 112 -160 112
-48 0 -60 -3 -60 -16z m150 -43 c37 -26 47 -64 27 -95 -18 -28 -87 -71 -129
-81 l-26 -7 13 49 c49 176 44 165 68 158 12 -4 33 -15 47 -24z"/>
<path d="M672 468 c-20 -20 -14 -40 11 -36 14 2 22 10 22 22 0 24 -16 31 -33
14z"/>
<path d="M1330 393 c0 -10 -12 -56 -25 -102 -15 -51 -21 -89 -16 -94 16 -16
29 2 42 59 10 43 20 62 48 85 35 29 61 37 61 20 0 -5 -9 -39 -21 -76 -14 -45
-17 -71 -11 -77 17 -17 28 -2 42 57 10 42 21 61 46 80 38 29 64 32 64 8 0 -10
-10 -46 -22 -80 -22 -63 -21 -80 6 -70 18 7 58 128 54 163 -4 38 -37 47 -82
25 -28 -15 -36 -16 -40 -5 -7 18 -57 18 -82 -1 -26 -20 -33 -19 -27 5 4 15 0
20 -16 20 -13 0 -21 -6 -21 -17z"/>
<path d="M654 382 c-18 -12 -57 -173 -45 -185 17 -17 25 0 50 92 21 79 20 109
-5 93z"/>
<path d="M2225 380 c-11 -4 -36 -25 -56 -47 -33 -35 -36 -43 -30 -78 5 -31 12
-42 32 -49 35 -12 91 0 117 25 33 30 16 43 -24 19 -41 -26 -89 -24 -89 4 0 14
12 22 49 31 47 12 76 35 76 59 -1 31 -41 50 -75 36z m35 -40 c0 -12 -33 -30
-56 -30 -16 0 -16 1 1 20 19 21 55 27 55 10z"/>
<path d="M2384 355 c-71 -75 -50 -176 27 -131 28 17 29 17 29 -4 0 -15 5 -20
17 -18 16 3 19 12 48 156 l7 32 -47 0 c-42 0 -52 -5 -81 -35z m86 -10 c0 -25
-67 -105 -88 -105 -34 0 13 94 58 117 32 16 30 17 30 -12z"/>
<path d="M717 253 c-12 -11 -8 -41 6 -46 8 -3 7 -10 -7 -26 -21 -23 -16 -37 9
-28 20 8 49 71 42 91 -6 16 -38 22 -50 9z"/>
</g>
</svg>
