<?xml version="1.0" standalone="no"?>
<!DOCTYPE svg PUBLIC "-//W3C//DTD SVG 20010904//EN"
 "http://www.w3.org/TR/2001/REC-SVG-20010904/DTD/svg10.dtd">
<svg version="1.0" xmlns="http://www.w3.org/2000/svg"
 width="300.000000pt" height="69.000000pt" viewBox="0 0 300.000000 69.000000"
 preserveAspectRatio="xMidYMid meet">
<metadata>
Created by potrace 1.10, written by Peter Selinger 2001-2011
</metadata>
<g transform="translate(0.000000,69.000000) scale(0.100000,-0.100000)"
fill="#000000" stroke="none">
<path d="M941 501 c-8 -5 -20 -7 -28 -4 -7 3 -13 0 -13 -6 0 -6 7 -11 15 -11
11 0 15 -12 15 -52 0 -40 -3 -49 -12 -40 -19 19 -57 14 -83 -13 -67 -66 8
-211 77 -148 15 14 18 14 18 1 0 -11 7 -14 25 -10 28 5 34 22 9 22 -15 0 -16
14 -10 135 4 74 6 135 4 135 -2 0 -9 -4 -17 -9z m-13 -178 c4 -63 -10 -93 -43
-93 -35 0 -59 41 -52 86 8 49 24 66 61 62 30 -3 31 -5 34 -55z"/>
<path d="M160 488 c0 -4 7 -8 15 -8 13 0 15 -21 15 -125 0 -104 -2 -125 -15
-125 -8 0 -15 -4 -15 -10 0 -15 85 -12 124 4 20 8 39 27 49 49 33 70 14 181
-36 205 -27 13 -137 22 -137 10z m120 -18 c53 -28 53 -202 0 -230 -10 -6 -28
-10 -39 -10 -20 0 -21 5 -21 125 0 120 1 125 21 125 11 0 29 -4 39 -10z"/>
<path d="M2530 442 c0 -23 -19 -42 -42 -42 -10 0 -18 -5 -18 -11 0 -7 10 -9
25 -5 25 6 25 6 25 -62 0 -74 17 -112 51 -112 20 0 59 33 59 50 0 18 -18 10
-23 -11 -4 -15 -12 -20 -29 -17 -21 3 -23 8 -26 80 l-3 78 29 -6 c17 -4 32 -1
36 5 5 7 -5 11 -28 11 -33 0 -36 2 -36 30 0 17 -4 30 -10 30 -5 0 -10 -8 -10
-18z"/>
<path d="M1233 402 c-22 -3 -33 -22 -13 -22 6 0 10 -42 10 -105 0 -63 -4 -105
-10 -105 -5 0 -10 -4 -10 -10 0 -5 18 -10 40 -10 22 0 40 5 40 10 0 6 -7 10
-15 10 -10 0 -15 10 -15 29 0 28 1 29 30 18 78 -29 133 100 70 163 -24 24 -63
26 -84 5 -13 -13 -15 -13 -18 2 -2 12 -10 17 -25 15z m117 -41 c15 -30 12 -92
-7 -113 -18 -21 -53 -24 -71 -6 -7 7 -12 35 -12 63 0 28 5 56 12 63 19 19 66
15 78 -7z"/>
<path d="M1453 402 c-18 -2 -33 -7 -33 -13 0 -5 10 -8 23 -6 21 2 22 -2 25
-75 3 -78 3 -78 -23 -78 -14 0 -25 -4 -25 -10 0 -6 27 -10 60 -10 33 0 60 4
60 10 0 6 -11 10 -25 10 -24 0 -25 1 -24 85 1 47 0 87 -2 88 -2 1 -19 1 -36
-1z"/>
<path d="M2270 400 c-21 -5 -22 -7 -7 -13 14 -5 17 -19 17 -82 0 -60 -3 -75
-15 -75 -8 0 -15 -4 -15 -10 0 -5 16 -10 35 -10 19 0 35 5 35 10 0 6 -4 10
-10 10 -6 0 -10 28 -10 65 0 62 1 65 31 80 46 24 59 8 59 -76 0 -55 -3 -69
-15 -69 -8 0 -15 -4 -15 -10 0 -5 18 -10 40 -10 22 0 40 5 40 10 0 6 -7 10
-15 10 -12 0 -15 15 -15 73 0 43 -5 78 -12 85 -17 17 -63 15 -79 -4 -12 -15
-14 -15 -19 3 -4 15 -11 18 -30 13z"/>
<path d="M416 369 c-36 -43 -35 -91 3 -130 37 -36 73 -38 108 -3 14 14 22 28
19 32 -4 3 -13 -4 -22 -16 -20 -29 -79 -31 -94 -3 -5 11 -10 28 -10 38 0 16 8
18 66 15 l67 -4 -7 34 c-13 70 -85 91 -130 37z m86 4 c10 -9 18 -24 18 -35 0
-15 -8 -18 -50 -18 -43 0 -50 3 -50 19 0 19 34 51 54 51 5 0 18 -7 28 -17z"/>
<path d="M616 381 c-10 -11 -15 -25 -11 -30 10 -17 25 -13 25 8 0 35 63 43 80
11 15 -28 7 -36 -40 -44 -76 -12 -104 -74 -48 -106 22 -12 33 -12 59 -3 24 9
35 9 51 0 16 -10 22 -9 34 7 16 23 18 36 4 36 -5 0 -10 -7 -10 -15 0 -8 -4
-15 -10 -15 -6 0 -10 30 -10 69 0 50 -4 74 -16 85 -22 23 -87 21 -108 -3z
m104 -96 c0 -39 -24 -58 -68 -53 -21 2 -28 9 -30 31 -3 23 2 30 30 42 55 24
68 20 68 -20z"/>
<path d="M1523 385 c-13 -9 -23 -21 -23 -26 0 -6 12 -1 27 11 24 19 29 20 39
6 15 -21 36 -20 32 2 -4 23 -47 27 -75 7z"/>
<path d="M1666 369 c-36 -43 -35 -91 3 -130 37 -36 73 -38 108 -3 14 14 22 28
19 32 -4 3 -13 -4 -22 -16 -20 -29 -79 -31 -94 -3 -5 11 -10 28 -10 38 0 16 8
18 66 15 l67 -4 -7 34 c-13 70 -85 91 -130 37z m86 4 c10 -9 18 -24 18 -35 0
-15 -8 -18 -50 -18 -43 0 -50 3 -50 19 0 19 34 51 54 51 5 0 18 -7 28 -17z"/>
<path d="M1876 377 c-23 -34 -13 -50 47 -78 58 -27 72 -54 36 -68 -33 -12 -72
1 -86 30 -12 23 -13 23 -13 -11 0 -35 0 -35 47 -37 61 -3 95 18 91 55 -2 22
-12 30 -55 47 -56 21 -71 39 -52 61 21 26 89 9 89 -21 0 -8 5 -15 10 -15 6 0
10 6 9 13 -1 31 -16 42 -61 45 -40 3 -49 0 -62 -21z"/>
<path d="M2085 375 c-19 -18 -25 -35 -25 -70 0 -56 32 -95 80 -95 31 0 70 30
69 53 0 6 -7 2 -16 -11 -11 -15 -26 -22 -48 -22 -35 0 -48 11 -59 48 -7 21 -5
22 63 22 39 0 71 4 71 9 0 23 -24 73 -40 81 -32 17 -70 11 -95 -15z m85 -5
c36 -36 26 -50 -35 -50 -47 0 -54 2 -48 18 9 25 34 52 50 52 7 0 22 -9 33 -20z"/>
<path d="M2716 387 c-33 -24 -17 -59 42 -86 40 -19 52 -30 52 -47 0 -16 -7
-24 -22 -26 -32 -5 -78 11 -78 27 0 8 -4 17 -10 20 -6 4 -10 -7 -10 -27 0 -33
0 -33 51 -35 59 -3 84 8 92 36 7 29 -14 52 -64 70 -45 17 -63 46 -37 62 24 15
48 10 73 -17 l25 -27 0 30 c0 29 -2 30 -48 32 -26 0 -56 -5 -66 -12z"/>
</g>
</svg>
